<mxfile host="app.diagrams.net" modified="2023-12-11T09:08:00.075Z" agent="Mozilla/5.0 (Windows NT 10.0; Win64; x64) AppleWebKit/537.36 (KHTML, like Gecko) Chrome/120.0.0.0 Safari/537.36 Edg/120.0.0.0" version="22.1.7" etag="lhJwMUS5igkBgacBL99H" type="github">
  <diagram name="Page-1" id="N7261xUqCjl8Fi72w4pC">
    <mxGraphModel>
      <root>
        <mxCell id="0" />
        <mxCell id="1" parent="0" />
      </root>
    </mxGraphModel>
  </diagram>
</mxfile>
